<mxfile host="Electron" agent="Mozilla/5.0 (Macintosh; Intel Mac OS X 10_15_7) AppleWebKit/537.36 (KHTML, like Gecko) draw.io/26.0.16 Chrome/132.0.6834.196 Electron/34.2.0 Safari/537.36" version="26.0.16">
  <diagram name="Page-1" id="IWEsB8895hM-PT6v8Kqg">
    <mxGraphModel dx="1114" dy="878" grid="1" gridSize="10" guides="1" tooltips="1" connect="1" arrows="1" fold="1" page="1" pageScale="1" pageWidth="827" pageHeight="1169" math="0" shadow="0">
      <root>
        <mxCell id="0" />
        <mxCell id="1" parent="0" />
        <mxCell id="olDOGqys7WL7DEn5nbAr-1" value="ExecutorService" style="rounded=0;whiteSpace=wrap;html=1;verticalAlign=top;fontStyle=1" vertex="1" parent="1">
          <mxGeometry x="100" y="50" width="330" height="300" as="geometry" />
        </mxCell>
        <mxCell id="olDOGqys7WL7DEn5nbAr-2" value="작업 대기열&lt;div&gt;(BlockingQueue)&lt;/div&gt;" style="rounded=1;whiteSpace=wrap;html=1;verticalAlign=top;fontStyle=1;fillColor=#f5f5f5;fontColor=#333333;strokeColor=#666666;" vertex="1" parent="1">
          <mxGeometry x="120" y="110" width="120" height="220" as="geometry" />
        </mxCell>
        <mxCell id="olDOGqys7WL7DEn5nbAr-3" value="스레드풀" style="rounded=1;whiteSpace=wrap;html=1;verticalAlign=top;fontStyle=1;fillColor=#f5f5f5;fontColor=#333333;strokeColor=#666666;" vertex="1" parent="1">
          <mxGeometry x="270" y="110" width="140" height="220" as="geometry" />
        </mxCell>
        <mxCell id="olDOGqys7WL7DEn5nbAr-4" value="pool-1-thread-1" style="ellipse;whiteSpace=wrap;html=1;" vertex="1" parent="1">
          <mxGeometry x="280" y="160" width="120" height="55" as="geometry" />
        </mxCell>
        <mxCell id="olDOGqys7WL7DEn5nbAr-5" value="pool-1-thread-2" style="ellipse;whiteSpace=wrap;html=1;" vertex="1" parent="1">
          <mxGeometry x="280" y="230" width="120" height="55" as="geometry" />
        </mxCell>
      </root>
    </mxGraphModel>
  </diagram>
</mxfile>
